<?xml version="1.0" standalone="no"?>
<!DOCTYPE svg PUBLIC "-//W3C//DTD SVG 20010904//EN"
 "http://www.w3.org/TR/2001/REC-SVG-20010904/DTD/svg10.dtd">
<svg version="1.0" xmlns="http://www.w3.org/2000/svg"
 width="3544.000000pt" height="2408.000000pt" viewBox="0 0 3544.000000 2408.000000"
 preserveAspectRatio="xMidYMid meet">
<metadata>
Created by potrace 1.16, written by Peter Selinger 2001-2019
</metadata>
<g transform="translate(0.000000,2408.000000) scale(0.100000,-0.100000)"
fill="#425df5" stroke="none">
<path d="M8318 17560 c-473 -26 -943 -146 -1358 -348 -537 -262 -1031 -685
-1445 -1237 -594 -792 -919 -1684 -1017 -2790 -20 -231 -17 -1017 5 -1260 78
-848 251 -1499 563 -2115 215 -425 468 -775 790 -1091 149 -146 190 -183 297
-268 422 -332 901 -560 1439 -685 673 -156 1495 -151 2128 13 768 200 1322
641 1661 1321 206 415 351 925 389 1377 15 167 8 425 -13 498 -18 66 -59 145
-89 172 -88 82 -260 83 -335 2 -50 -55 -73 -131 -94 -306 -84 -732 -262 -1260
-570 -1693 -338 -476 -821 -770 -1409 -855 -155 -23 -485 -31 -636 -16 -725
74 -1286 429 -1719 1091 -517 790 -774 1897 -775 3345 0 1016 109 1860 325
2510 133 401 281 684 501 960 423 529 970 788 1609 761 533 -22 976 -218 1359
-602 300 -299 525 -678 674 -1135 68 -209 112 -386 156 -640 5 -28 15 -40 45
-57 21 -12 43 -22 49 -22 6 0 23 33 37 73 37 98 129 312 235 547 269 597 546
1142 892 1754 l130 230 -22 16 c-12 9 -37 25 -56 35 -34 18 -35 18 -72 -4
-348 -206 -666 -240 -1137 -120 -129 33 -268 79 -550 183 -567 210 -1080 326
-1566 356 -170 10 -220 10 -421 0z"/>
<path d="M16975 17439 c-1023 -34 -2012 -278 -2953 -730 -158 -76 -437 -224
-475 -251 -17 -13 -6 -19 110 -67 215 -90 582 -279 612 -315 8 -9 10 -547 9
-1812 l-3 -1799 -60 -7 c-95 -11 -422 -14 -631 -4 l-191 8 -48 -164 c-27 -89
-68 -216 -91 -282 -53 -144 -112 -337 -121 -389 l-6 -38 36 14 c60 26 279 84
448 121 232 50 495 86 632 86 l47 0 0 -190 0 -189 -37 -10 c-21 -6 -123 -31
-228 -56 -104 -26 -230 -58 -280 -72 -98 -28 -396 -132 -407 -142 -10 -9 52
-141 67 -141 6 0 51 14 101 30 206 71 696 200 757 200 l27 0 0 -1230 0 -1230
-476 -432 -476 -433 805 -3 c443 -1 1170 -1 1616 0 l811 3 -420 435 -419 435
-1 1631 c0 1488 1 1632 16 1638 9 3 172 27 363 51 634 83 1049 152 1323 221
53 13 99 24 102 24 9 0 33 -61 83 -205 24 -71 53 -145 64 -163 10 -18 19 -35
19 -37 0 -2 -46 -21 -102 -43 -335 -130 -748 -225 -1198 -277 -74 -9 -163 -20
-197 -26 l-63 -11 0 -1477 0 -1478 387 -409 c212 -225 451 -477 530 -560 79
-83 143 -154 143 -158 0 -3 -783 -6 -1740 -6 -957 0 -1740 -3 -1740 -7 0 -4
23 -46 52 -95 l52 -88 1900 0 1900 0 -31 33 c-17 17 -305 326 -642 685 l-611
653 0 1375 c0 756 3 1374 8 1374 22 0 318 55 462 86 321 69 616 157 835 249
l106 44 16 -37 c8 -20 33 -79 55 -131 526 -1242 997 -2985 1273 -4715 19 -120
37 -221 39 -223 3 -3 101 56 218 130 644 407 1383 766 2023 982 61 21 111 39
113 40 1 1 -56 53 -129 115 -530 456 -1058 1082 -1597 1897 -558 843 -1007
1718 -1342 2611 -23 62 -41 114 -39 116 2 1 51 15 109 31 58 15 182 54 275 86
604 203 1084 492 1455 876 316 326 499 660 587 1072 26 119 28 140 28 391 0
250 -2 272 -27 391 -110 508 -394 916 -885 1267 -548 392 -1205 622 -2018 707
-137 14 -591 37 -675 33 -19 -1 -134 -5 -255 -9z m525 -567 c531 -88 950 -298
1286 -643 256 -264 400 -548 459 -910 23 -138 23 -442 1 -589 -55 -353 -186
-645 -408 -907 -416 -492 -1186 -853 -2278 -1068 -102 -20 -193 -39 -202 -41
-17 -5 -18 82 -18 1730 l0 1735 43 12 c220 59 465 83 806 76 298 -6 411 -18
616 -67 350 -84 687 -262 1099 -583 76 -59 140 -106 142 -104 8 7 -135 213
-201 290 -222 258 -553 449 -945 547 -225 56 -407 79 -700 87 -351 10 -672
-20 -972 -89 l-88 -20 0 -1808 0 -1808 -32 -6 c-74 -13 -218 -26 -296 -26
l-82 0 0 1975 0 1975 62 31 c190 96 471 175 758 213 174 23 182 24 515 21 258
-2 331 -6 435 -23z"/>
<path d="M22961 17321 c2 -6 162 -182 354 -392 193 -210 367 -402 388 -426
l37 -45 0 -3882 0 -3883 -22 -20 c-23 -21 -135 -108 -686 -533 l-292 -225
1698 -3 c1992 -4 2164 1 2689 73 649 90 1120 256 1591 562 704 457 1175 1097
1467 1993 135 416 224 894 276 1490 17 196 23 949 10 1172 -89 1480 -577 2560
-1490 3297 -403 326 -921 551 -1576 685 -285 58 -593 97 -1000 127 -207 15
-3449 25 -3444 10z m3029 -642 c774 -53 1312 -219 1725 -532 178 -136 386
-370 531 -599 278 -439 479 -1076 558 -1768 65 -567 73 -1300 21 -1910 -127
-1479 -602 -2510 -1402 -3046 -347 -232 -722 -321 -1436 -341 l-237 -6 2 3784
3 3784 120 12 c665 66 1303 -31 1904 -288 63 -27 115 -48 117 -46 7 6 -183
156 -284 224 -273 185 -531 271 -927 309 -236 22 -704 15 -925 -15 -85 -12
-163 -24 -172 -27 -17 -5 -18 -198 -18 -3870 l0 -3864 -195 0 -195 0 0 4103
c0 2257 3 4107 7 4111 10 9 614 -2 803 -15z"/>
<path d="M12507 16833 c-31 -52 -653 -1161 -719 -1283 -174 -321 -658 -1304
-658 -1337 0 -5 43 -30 95 -56 l96 -47 21 47 c324 749 752 1576 1296 2508 23
38 38 73 33 78 -8 8 -151 97 -156 97 -2 0 -6 -3 -8 -7z"/>
<path d="M8460 16530 c-935 -129 -1497 -881 -1719 -2300 -111 -706 -131 -1710
-50 -2505 145 -1441 632 -2555 1314 -3007 145 -96 357 -189 489 -213 36 -7 36
-7 36 28 0 33 -2 35 -93 79 -458 222 -828 655 -1097 1288 -120 282 -247 705
-314 1045 -111 567 -156 1087 -156 1805 0 846 68 1481 217 2035 250 930 706
1440 1391 1556 164 27 434 23 577 -9 264 -60 544 -196 814 -393 62 -46 122
-90 132 -98 18 -13 19 -11 19 34 0 45 -3 50 -67 113 -285 274 -575 443 -893
519 -92 22 -132 25 -320 28 -118 2 -244 0 -280 -5z"/>
<path d="M20726 16465 c319 -518 464 -871 520 -1261 18 -130 20 -396 4 -544
-58 -531 -287 -997 -684 -1394 -331 -330 -793 -621 -1371 -861 -87 -36 -160
-67 -162 -69 -5 -5 70 -201 160 -416 442 -1061 970 -1972 1572 -2710 189 -232
328 -384 559 -615 313 -311 569 -529 915 -775 88 -63 148 -112 140 -114 -8 -3
-86 -26 -174 -52 -687 -198 -1412 -499 -2065 -857 -286 -156 -720 -420 -720
-437 0 -13 126 -110 143 -110 9 0 18 4 22 9 3 6 99 66 213 134 856 512 1789
917 2740 1191 106 31 199 56 207 56 39 0 10 27 -148 132 -644 433 -1184 911
-1628 1444 -630 756 -1148 1609 -1478 2435 -93 234 -206 568 -195 578 5 4 56
27 112 51 373 155 787 396 1070 623 659 529 974 1184 949 1976 -16 521 -162
943 -460 1335 -65 86 -271 301 -241 251z"/>
<path d="M29626 16348 c5 -9 104 -121 221 -249 232 -257 285 -320 378 -454
423 -610 656 -1382 737 -2445 17 -217 16 -991 0 -1215 -50 -673 -155 -1216
-334 -1725 -158 -452 -392 -882 -666 -1225 -404 -507 -959 -916 -1562 -1150
-566 -220 -1276 -341 -2195 -375 -148 -5 -912 -10 -1697 -10 -786 0 -1428 -2
-1428 -5 0 -3 23 -46 51 -96 l52 -90 1611 4 c1726 4 1715 4 2191 58 911 103
1662 334 2215 680 618 387 1140 1026 1469 1797 256 600 400 1244 468 2082 25
309 25 1082 0 1370 -84 970 -303 1681 -697 2265 -135 200 -378 464 -560 608
-110 87 -265 194 -254 175z"/>
<path d="M12196 10846 c-3 -17 -14 -131 -26 -253 -66 -736 -191 -1251 -404
-1668 -228 -449 -594 -853 -1036 -1147 -159 -105 -443 -248 -623 -313 -541
-194 -1186 -250 -1879 -164 -559 69 -1079 242 -1512 503 -59 37 -110 66 -112
66 -2 0 -4 -13 -4 -28 0 -25 14 -38 123 -109 575 -379 1143 -585 1791 -649
204 -20 698 -15 911 11 1011 120 1764 551 2272 1301 398 589 632 1350 708
2309 l7 80 -106 46 -105 47 -5 -32z"/>
<path d="M771 10589 c-2 -28 97 -510 138 -669 118 -462 336 -1068 511 -1420
20 -41 45 -93 54 -115 33 -77 241 -461 332 -615 162 -275 262 -427 484 -744
31 -44 163 -221 194 -260 157 -199 316 -394 355 -438 26 -29 99 -111 161 -183
62 -71 267 -282 454 -469 393 -389 381 -378 546 -521 69 -60 127 -111 130
-115 3 -4 59 -51 125 -105 66 -54 140 -115 165 -136 57 -49 184 -148 379 -296
146 -112 201 -153 281 -208 19 -14 65 -46 102 -72 205 -148 739 -503 754 -503
3 0 24 -13 47 -29 36 -24 189 -117 282 -171 17 -9 66 -39 110 -65 357 -213
1145 -619 1590 -820 28 -13 75 -34 105 -48 62 -28 242 -106 400 -174 58 -24
119 -50 135 -58 29 -12 127 -51 465 -183 196 -77 595 -223 680 -250 36 -11
130 -43 210 -71 225 -77 778 -249 940 -291 47 -12 103 -28 125 -35 22 -7 85
-25 140 -39 55 -15 124 -34 153 -42 56 -16 563 -143 597 -150 11 -2 47 -10 80
-19 247 -61 1021 -220 1290 -264 33 -5 139 -23 235 -40 96 -16 195 -33 220
-36 25 -3 70 -10 100 -15 375 -63 1220 -164 1665 -200 66 -5 172 -14 235 -19
506 -44 1484 -84 2055 -84 606 0 1623 43 2190 94 157 13 529 49 580 54 22 3
123 14 225 25 201 22 398 47 670 86 332 48 446 65 620 95 96 17 202 35 235 40
143 23 739 139 815 159 19 5 51 12 70 15 19 3 62 12 95 20 33 8 112 26 175 40
376 84 811 195 1215 310 555 157 1336 418 1815 605 325 127 468 184 505 200
22 10 81 35 130 55 50 20 118 50 152 66 34 16 84 37 110 48 27 10 78 32 113
49 87 40 188 85 274 124 314 142 1166 588 1455 762 51 31 95 56 97 56 1 0 46
27 99 60 53 33 98 60 100 60 4 0 214 132 355 224 160 103 369 245 488 330 159
113 202 144 242 171 33 23 173 130 436 334 60 46 114 89 119 96 6 6 66 56 135
112 69 55 134 109 145 120 11 10 76 68 145 127 171 149 161 139 561 537 386
385 691 727 918 1029 31 41 61 80 67 85 34 32 368 507 463 660 24 39 54 86 67
105 165 258 476 844 570 1075 13 33 29 68 35 78 19 35 148 364 207 532 91 254
160 488 225 755 46 188 120 568 113 583 -2 7 -5 3 -5 -8 -1 -27 -70 -263 -133
-455 -231 -704 -594 -1445 -1031 -2100 -395 -592 -805 -1088 -1352 -1636 -170
-171 -387 -380 -480 -465 -1797 -1623 -4254 -2917 -7060 -3718 -299 -85 -327
-93 -650 -176 -612 -158 -1402 -323 -2055 -429 -1248 -203 -2417 -309 -3714
-337 -2348 -49 -4638 206 -6841 761 -268 67 -336 86 -740 201 -1611 460 -3210
1137 -4550 1927 -620 365 -1081 677 -1710 1156 -120 92 -534 438 -679 569
-1413 1270 -2381 2673 -2898 4197 -40 121 -134 431 -151 505 -3 13 -5 15 -6 4z"/>
</g>
</svg>
