<?xml version="1.0" standalone="no"?>
<!DOCTYPE svg PUBLIC "-//W3C//DTD SVG 20010904//EN"
 "http://www.w3.org/TR/2001/REC-SVG-20010904/DTD/svg10.dtd">
<svg version="1.0" xmlns="http://www.w3.org/2000/svg"
 width="4724.000000pt" height="4724.000000pt" viewBox="0 0 4724.000000 4724.000000"
 preserveAspectRatio="xMidYMid meet">
<metadata>
Created by potrace 1.16, written by Peter Selinger 2001-2019
</metadata>
<g transform="translate(0.000000,4724.000000) scale(0.100000,-0.100000)"
fill="#425df5" stroke="none">
<path d="M14134 29009 c-711 -38 -1371 -279 -1938 -708 -543 -409 -1043 -1032
-1362 -1696 -241 -501 -393 -1021 -479 -1630 -65 -467 -73 -1192 -19 -1725 99
-977 373 -1794 827 -2465 263 -390 617 -754 982 -1012 481 -340 1067 -556
1724 -638 300 -37 716 -43 1031 -14 1112 100 1875 574 2301 1429 258 520 412
1163 396 1660 -3 97 -11 185 -20 215 -19 66 -59 145 -89 172 -88 82 -260 83
-335 2 -50 -54 -74 -131 -93 -301 -114 -966 -401 -1626 -901 -2066 -296 -261
-657 -424 -1079 -487 -154 -23 -484 -31 -636 -16 -375 38 -714 155 -1004 348
-393 260 -734 685 -979 1221 -341 743 -510 1695 -511 2867 -1 1474 231 2589
678 3267 240 363 530 628 864 788 281 134 564 190 893 176 533 -22 976 -218
1359 -602 411 -411 689 -988 816 -1693 11 -63 26 -119 33 -123 25 -18 66 -38
76 -38 5 0 22 33 37 73 91 243 338 786 569 1252 197 396 310 610 532 1004 154
274 154 275 133 291 -12 9 -37 25 -56 35 -34 18 -35 18 -72 -4 -276 -164 -537
-218 -854 -176 -217 28 -412 85 -845 244 -566 207 -1077 323 -1554 351 -190
11 -217 11 -425 -1z"/>
<path d="M22885 28893 c-1164 -27 -2316 -332 -3341 -886 -88 -47 -167 -92
-177 -99 -17 -13 -6 -19 110 -67 215 -90 582 -279 612 -315 8 -9 10 -547 9
-1812 l-3 -1799 -60 -7 c-91 -11 -427 -13 -636 -4 l-186 8 -48 -163 c-27 -90
-68 -217 -91 -283 -53 -144 -112 -337 -121 -389 l-6 -38 36 14 c50 21 311 92
448 121 230 50 495 86 632 86 l47 0 0 -190 0 -189 -37 -10 c-21 -6 -123 -31
-228 -56 -333 -80 -693 -199 -687 -227 8 -34 56 -128 65 -128 5 0 80 23 166
51 174 57 647 179 692 179 l29 0 0 -1230 0 -1230 -476 -432 -476 -433 805 -3
c443 -1 1170 -1 1616 0 l811 3 -420 435 -419 435 -1 1631 c0 1488 1 1632 16
1638 9 3 138 22 288 41 666 87 1120 161 1398 231 53 13 99 24 102 24 8 0 33
-60 82 -203 25 -71 53 -146 64 -167 l20 -39 -103 -39 c-334 -130 -747 -225
-1197 -277 -74 -9 -163 -20 -197 -26 l-63 -11 0 -1477 0 -1478 387 -409 c212
-225 451 -477 530 -560 79 -83 143 -154 143 -158 0 -3 -783 -6 -1740 -6 -957
0 -1740 -3 -1740 -7 0 -4 23 -46 52 -95 l52 -88 1900 0 1900 0 -31 33 c-16 17
-305 326 -642 685 l-611 653 0 1374 c0 765 4 1375 9 1375 20 0 358 63 486 91
300 66 601 156 810 244 58 24 106 41 109 37 2 -4 31 -74 66 -155 411 -987 748
-2102 1024 -3389 104 -483 233 -1184 280 -1520 l7 -46 155 99 c348 224 629
383 1004 568 355 176 791 359 1093 459 59 20 107 38 106 41 0 3 -30 30 -67 59
-188 150 -473 429 -703 687 -765 860 -1551 2111 -2056 3275 -123 283 -290 707
-282 714 2 1 42 13 89 25 451 121 915 326 1255 554 194 130 336 249 501 419
310 322 494 659 581 1067 26 119 27 141 28 391 0 251 -2 272 -27 391 -110 508
-394 916 -885 1267 -547 391 -1207 622 -2018 707 -146 15 -595 37 -685 33 -25
-1 -94 -3 -155 -5z m435 -571 c273 -46 473 -108 695 -217 237 -116 412 -243
591 -426 328 -338 478 -717 477 -1204 -1 -333 -59 -589 -196 -862 -339 -674
-1183 -1148 -2507 -1408 -102 -20 -193 -39 -202 -41 -17 -5 -18 82 -18 1730
l0 1735 38 10 c226 61 465 84 812 78 369 -7 591 -42 853 -137 248 -90 584
-292 890 -535 60 -48 111 -85 113 -82 8 7 -134 212 -201 290 -246 285 -620
487 -1070 576 -221 43 -367 55 -675 56 -373 0 -617 -24 -872 -86 l-88 -21 0
-1808 0 -1808 -32 -6 c-74 -13 -218 -26 -296 -26 l-82 0 2 1977 3 1977 66 32
c183 88 463 168 714 203 214 30 200 29 545 26 263 -2 336 -6 440 -23z"/>
<path d="M28781 28771 c2 -5 162 -182 354 -392 193 -210 367 -402 388 -426
l37 -45 0 -3882 0 -3882 -27 -26 c-16 -14 -237 -186 -493 -383 -256 -197 -469
-362 -475 -367 -15 -14 3698 -4 3860 11 667 59 1028 128 1410 266 624 226
1178 634 1574 1159 349 463 613 1090 752 1790 97 491 139 964 139 1575 0 671
-55 1160 -191 1681 -288 1112 -944 1985 -1829 2432 -526 267 -1155 413 -2055
479 -205 15 -3449 25 -3444 10z m3014 -641 c595 -39 1037 -142 1410 -327 204
-102 358 -215 531 -389 630 -635 944 -1707 944 -3224 0 -1750 -392 -3003
-1156 -3695 -455 -412 -840 -538 -1717 -562 l-237 -6 2 3784 3 3784 125 14
c189 20 622 19 805 -3 421 -50 785 -148 1149 -311 32 -14 60 -24 62 -23 6 7
-179 154 -284 226 -360 246 -730 330 -1397 319 -226 -4 -338 -10 -455 -26 -85
-12 -163 -24 -172 -27 -17 -5 -18 -198 -18 -3870 l0 -3864 -195 0 -195 0 0
4103 c0 2257 2 4106 4 4108 8 8 633 -1 791 -11z"/>
<path d="M18307 28248 c-88 -153 -670 -1193 -742 -1328 -204 -382 -627 -1252
-614 -1264 16 -15 189 -94 193 -88 2 4 29 63 59 132 284 649 684 1428 1138
2212 82 141 150 262 151 268 2 9 -142 110 -157 110 -2 0 -14 -19 -28 -42z"/>
<path d="M14310 27984 c-953 -116 -1525 -870 -1749 -2304 -83 -531 -119 -1291
-91 -1930 43 -965 198 -1746 476 -2399 279 -654 629 -1079 1061 -1287 95 -46
248 -100 312 -110 l37 -6 -4 36 c-4 34 -8 38 -96 79 -724 344 -1234 1249
-1455 2582 -45 270 -82 625 -101 975 -13 237 -13 909 0 1155 56 1065 242 1815
574 2325 256 391 590 617 1022 690 169 29 438 25 579 -8 274 -64 568 -208 841
-413 54 -41 104 -78 111 -82 10 -6 13 3 13 39 0 44 -3 49 -67 112 -286 275
-574 443 -893 519 -92 22 -131 25 -320 28 -118 2 -231 1 -250 -1z"/>
<path d="M26546 27915 c318 -517 464 -872 520 -1261 18 -129 20 -397 4 -545
-58 -531 -287 -996 -687 -1395 -331 -331 -795 -622 -1368 -859 -87 -36 -160
-67 -162 -69 -9 -8 155 -416 299 -741 112 -254 346 -723 482 -967 684 -1226
1475 -2137 2453 -2829 76 -53 120 -91 112 -94 -8 -2 -86 -25 -174 -51 -797
-229 -1644 -598 -2390 -1042 -221 -132 -395 -242 -395 -252 0 -4 31 -33 69
-64 l69 -55 26 20 c14 11 114 73 223 138 746 444 1536 802 2358 1071 207 67
557 170 580 170 39 0 10 27 -148 132 -643 432 -1186 913 -1627 1443 -634 761
-1157 1624 -1485 2450 -91 229 -200 555 -189 564 5 4 56 27 112 51 57 24 174
78 261 120 1210 594 1791 1412 1758 2475 -7 213 -26 360 -71 539 -75 296 -199
550 -389 800 -65 86 -271 301 -241 251z"/>
<path d="M35446 27797 c5 -8 92 -106 194 -218 102 -112 220 -245 262 -296 453
-547 740 -1319 847 -2283 37 -331 46 -515 46 -960 -1 -441 -9 -622 -45 -952
-184 -1680 -870 -2855 -2065 -3533 -642 -365 -1476 -552 -2658 -595 -144 -5
-907 -10 -1694 -10 -788 0 -1433 -2 -1433 -5 0 -3 23 -46 51 -96 l52 -90 1611
4 c1726 4 1699 3 2186 57 1023 114 1852 395 2426 820 450 334 863 839 1144
1401 330 658 522 1437 592 2404 20 276 17 1047 -5 1303 -84 970 -298 1671
-688 2253 -192 287 -472 568 -758 761 -40 28 -69 43 -65 35z"/>
<path d="M18016 22296 c-3 -17 -10 -89 -16 -161 -48 -564 -136 -1041 -257
-1395 -206 -601 -631 -1138 -1193 -1512 -160 -106 -443 -248 -625 -313 -449
-162 -986 -229 -1545 -195 -722 45 -1334 224 -1859 544 -51 31 -96 56 -100 56
-4 0 -6 -13 -3 -29 3 -24 23 -42 125 -109 575 -377 1135 -581 1787 -647 207
-22 697 -16 915 10 759 90 1377 356 1840 794 667 630 1040 1551 1140 2816 l7
80 -106 46 -105 47 -5 -32z"/>
<path d="M6591 22039 c-2 -29 68 -377 116 -579 153 -640 424 -1343 742 -1924
44 -82 81 -151 81 -153 0 -4 168 -288 219 -371 87 -141 352 -530 384 -563 9
-11 17 -21 17 -24 0 -16 432 -567 491 -626 11 -11 74 -83 141 -162 160 -186
788 -814 998 -997 91 -79 172 -150 180 -158 54 -54 425 -351 660 -529 85 -65
157 -120 160 -123 7 -8 348 -248 485 -341 131 -90 485 -319 492 -319 2 0 23
-13 46 -28 44 -30 224 -139 392 -237 512 -300 1427 -762 1850 -935 44 -18 85
-36 90 -40 13 -10 333 -143 510 -212 467 -184 669 -259 950 -354 105 -36 224
-76 265 -90 69 -23 223 -72 550 -174 69 -21 193 -58 275 -81 83 -23 186 -52
230 -64 154 -44 241 -67 435 -115 293 -74 476 -119 549 -135 36 -7 109 -23
161 -35 380 -85 610 -130 1135 -225 295 -53 1037 -161 1300 -190 28 -3 106
-12 175 -20 130 -15 483 -50 605 -60 39 -3 120 -10 180 -15 188 -17 223 -20
465 -35 587 -36 1220 -57 1700 -57 583 0 1547 39 2060 83 63 5 171 14 240 20
69 5 190 16 270 24 80 9 170 18 200 21 30 3 111 12 180 20 69 8 148 16 175 19
130 14 622 82 900 124 186 29 571 95 814 142 257 49 446 88 721 149 52 12 127
28 165 36 39 8 95 21 125 29 30 8 147 37 260 65 871 214 1790 500 2555 797
445 172 655 258 820 333 33 15 101 44 150 64 50 21 100 44 113 52 13 9 31 17
40 19 62 12 969 465 1302 650 268 149 644 369 727 426 23 16 44 29 47 29 16 0
601 391 827 553 279 200 878 668 969 759 8 8 89 79 180 158 212 184 750 718
932 925 77 88 157 178 177 200 19 22 71 83 114 135 42 52 94 114 114 138 56
66 229 294 368 487 55 76 214 311 264 390 24 39 54 86 67 105 34 53 214 358
214 363 0 2 37 71 81 153 318 581 588 1283 742 1924 57 240 121 565 113 583
-2 7 -5 3 -5 -8 -3 -70 -195 -655 -306 -930 -107 -267 -156 -375 -291 -645
-377 -753 -856 -1453 -1465 -2140 -296 -335 -812 -841 -1179 -1156 -2581
-2217 -6343 -3737 -10530 -4253 -351 -44 -788 -88 -1085 -111 -77 -6 -194 -15
-260 -20 -546 -43 -1149 -62 -1905 -62 -664 0 -979 7 -1515 37 -3253 183
-6357 963 -8958 2252 -1366 677 -2525 1453 -3562 2382 -219 196 -725 706 -924
931 -819 925 -1428 1911 -1816 2940 -89 234 -207 605 -248 775 -3 14 -5 15 -6
4z"/>
</g>
</svg>
